<mxfile host="app.diagrams.net" modified="2020-09-17T12:31:01.841Z" agent="5.0 (Windows NT 10.0; Win64; x64) AppleWebKit/537.36 (KHTML, like Gecko) Chrome/85.0.4183.102 Safari/537.36" etag="GVSbgQawzD1ZD5g6ON8A" version="13.6.9" type="github">
  <diagram name="Page-1" id="edf60f1a-56cd-e834-aa8a-f176f3a09ee4">
    <mxGraphModel dx="1021" dy="567" grid="1" gridSize="10" guides="1" tooltips="1" connect="1" arrows="1" fold="1" page="1" pageScale="1" pageWidth="1100" pageHeight="850" background="#ffffff" math="0" shadow="0">
      <root>
        <mxCell id="0" />
        <mxCell id="1" parent="0" />
        <mxCell id="yevtCZ5iCF3uBbT4yuub-7" value="" style="edgeStyle=orthogonalEdgeStyle;rounded=0;orthogonalLoop=1;jettySize=auto;html=1;" edge="1" parent="1" source="yevtCZ5iCF3uBbT4yuub-5" target="yevtCZ5iCF3uBbT4yuub-6">
          <mxGeometry relative="1" as="geometry" />
        </mxCell>
        <mxCell id="yevtCZ5iCF3uBbT4yuub-5" value="" style="strokeWidth=2;html=1;shape=mxgraph.flowchart.start_1;whiteSpace=wrap;" vertex="1" parent="1">
          <mxGeometry x="440" y="80" width="100" height="40" as="geometry" />
        </mxCell>
        <mxCell id="yevtCZ5iCF3uBbT4yuub-9" value="" style="edgeStyle=orthogonalEdgeStyle;rounded=0;orthogonalLoop=1;jettySize=auto;html=1;" edge="1" parent="1" source="yevtCZ5iCF3uBbT4yuub-6" target="yevtCZ5iCF3uBbT4yuub-8">
          <mxGeometry relative="1" as="geometry" />
        </mxCell>
        <mxCell id="yevtCZ5iCF3uBbT4yuub-6" value="Get Address and Town from NIM with postcode/hnr from PCDB" style="rounded=1;whiteSpace=wrap;html=1;absoluteArcSize=1;arcSize=14;strokeWidth=2;" vertex="1" parent="1">
          <mxGeometry x="420" y="160" width="140" height="60" as="geometry" />
        </mxCell>
        <mxCell id="yevtCZ5iCF3uBbT4yuub-11" value="" style="edgeStyle=orthogonalEdgeStyle;rounded=0;orthogonalLoop=1;jettySize=auto;html=1;" edge="1" parent="1" source="yevtCZ5iCF3uBbT4yuub-8" target="yevtCZ5iCF3uBbT4yuub-10">
          <mxGeometry relative="1" as="geometry" />
        </mxCell>
        <mxCell id="yevtCZ5iCF3uBbT4yuub-27" value="" style="edgeStyle=orthogonalEdgeStyle;rounded=0;orthogonalLoop=1;jettySize=auto;html=1;" edge="1" parent="1" source="yevtCZ5iCF3uBbT4yuub-8" target="yevtCZ5iCF3uBbT4yuub-26">
          <mxGeometry relative="1" as="geometry" />
        </mxCell>
        <mxCell id="yevtCZ5iCF3uBbT4yuub-8" value="" style="strokeWidth=2;html=1;shape=mxgraph.flowchart.decision;whiteSpace=wrap;" vertex="1" parent="1">
          <mxGeometry x="450" y="260" width="80" height="80" as="geometry" />
        </mxCell>
        <mxCell id="yevtCZ5iCF3uBbT4yuub-14" value="" style="edgeStyle=orthogonalEdgeStyle;rounded=0;orthogonalLoop=1;jettySize=auto;html=1;" edge="1" parent="1" source="yevtCZ5iCF3uBbT4yuub-10" target="yevtCZ5iCF3uBbT4yuub-13">
          <mxGeometry relative="1" as="geometry" />
        </mxCell>
        <mxCell id="yevtCZ5iCF3uBbT4yuub-10" value="Get Town from NIM with with postcode/hnr from PCDB" style="rounded=1;whiteSpace=wrap;html=1;absoluteArcSize=1;arcSize=14;strokeWidth=2;" vertex="1" parent="1">
          <mxGeometry x="620" y="270" width="140" height="60" as="geometry" />
        </mxCell>
        <mxCell id="yevtCZ5iCF3uBbT4yuub-12" value="Address not found" style="text;strokeColor=none;fillColor=none;align=left;verticalAlign=top;spacingLeft=4;spacingRight=4;overflow=hidden;rotatable=0;points=[[0,0.5],[1,0.5]];portConstraint=eastwest;" vertex="1" parent="1">
          <mxGeometry x="510" y="260" width="140" height="26" as="geometry" />
        </mxCell>
        <mxCell id="yevtCZ5iCF3uBbT4yuub-16" value="" style="edgeStyle=orthogonalEdgeStyle;rounded=0;orthogonalLoop=1;jettySize=auto;html=1;" edge="1" parent="1" source="yevtCZ5iCF3uBbT4yuub-13" target="yevtCZ5iCF3uBbT4yuub-15">
          <mxGeometry relative="1" as="geometry" />
        </mxCell>
        <mxCell id="yevtCZ5iCF3uBbT4yuub-22" style="edgeStyle=orthogonalEdgeStyle;rounded=0;orthogonalLoop=1;jettySize=auto;html=1;entryX=0;entryY=0.5;entryDx=0;entryDy=0;exitX=1;exitY=0.5;exitDx=0;exitDy=0;exitPerimeter=0;" edge="1" parent="1" source="yevtCZ5iCF3uBbT4yuub-13" target="yevtCZ5iCF3uBbT4yuub-18">
          <mxGeometry relative="1" as="geometry">
            <mxPoint x="690" y="470" as="sourcePoint" />
          </mxGeometry>
        </mxCell>
        <mxCell id="yevtCZ5iCF3uBbT4yuub-37" value="" style="edgeStyle=orthogonalEdgeStyle;rounded=0;orthogonalLoop=1;jettySize=auto;html=1;" edge="1" parent="1" source="yevtCZ5iCF3uBbT4yuub-13" target="yevtCZ5iCF3uBbT4yuub-36">
          <mxGeometry relative="1" as="geometry" />
        </mxCell>
        <mxCell id="yevtCZ5iCF3uBbT4yuub-13" value="" style="strokeWidth=2;html=1;shape=mxgraph.flowchart.decision;whiteSpace=wrap;" vertex="1" parent="1">
          <mxGeometry x="650" y="380" width="80" height="80" as="geometry" />
        </mxCell>
        <mxCell id="yevtCZ5iCF3uBbT4yuub-24" style="edgeStyle=orthogonalEdgeStyle;rounded=0;orthogonalLoop=1;jettySize=auto;html=1;" edge="1" parent="1" source="yevtCZ5iCF3uBbT4yuub-15">
          <mxGeometry relative="1" as="geometry">
            <mxPoint x="1070" y="454" as="targetPoint" />
          </mxGeometry>
        </mxCell>
        <mxCell id="yevtCZ5iCF3uBbT4yuub-15" value="Return error &quot;Postcode house nr not found in PCDB&quot;" style="rounded=1;whiteSpace=wrap;html=1;absoluteArcSize=1;arcSize=14;strokeWidth=2;" vertex="1" parent="1">
          <mxGeometry x="830" y="390" width="140" height="60" as="geometry" />
        </mxCell>
        <mxCell id="yevtCZ5iCF3uBbT4yuub-17" value="Area not found" style="text;strokeColor=none;fillColor=none;align=left;verticalAlign=top;spacingLeft=4;spacingRight=4;overflow=hidden;rotatable=0;points=[[0,0.5],[1,0.5]];portConstraint=eastwest;" vertex="1" parent="1">
          <mxGeometry x="720" y="390" width="140" height="26" as="geometry" />
        </mxCell>
        <mxCell id="yevtCZ5iCF3uBbT4yuub-25" style="edgeStyle=orthogonalEdgeStyle;rounded=0;orthogonalLoop=1;jettySize=auto;html=1;entryX=0.5;entryY=1;entryDx=0;entryDy=0;entryPerimeter=0;" edge="1" parent="1" source="yevtCZ5iCF3uBbT4yuub-18" target="yevtCZ5iCF3uBbT4yuub-21">
          <mxGeometry relative="1" as="geometry" />
        </mxCell>
        <mxCell id="yevtCZ5iCF3uBbT4yuub-18" value="Return error &quot;Duplicate values in PCDB" style="rounded=1;whiteSpace=wrap;html=1;absoluteArcSize=1;arcSize=14;strokeWidth=2;" vertex="1" parent="1">
          <mxGeometry x="830" y="490" width="140" height="60" as="geometry" />
        </mxCell>
        <mxCell id="yevtCZ5iCF3uBbT4yuub-21" value="" style="strokeWidth=2;html=1;shape=mxgraph.flowchart.terminator;whiteSpace=wrap;" vertex="1" parent="1">
          <mxGeometry x="1020" y="454" width="100" height="43" as="geometry" />
        </mxCell>
        <mxCell id="yevtCZ5iCF3uBbT4yuub-23" value="Too many &#xa;records found" style="text;strokeColor=none;fillColor=none;align=left;verticalAlign=top;spacingLeft=4;spacingRight=4;overflow=hidden;rotatable=0;points=[[0,0.5],[1,0.5]];portConstraint=eastwest;" vertex="1" parent="1">
          <mxGeometry x="700" y="454" width="90" height="39" as="geometry" />
        </mxCell>
        <mxCell id="yevtCZ5iCF3uBbT4yuub-30" value="" style="edgeStyle=orthogonalEdgeStyle;rounded=0;orthogonalLoop=1;jettySize=auto;html=1;" edge="1" parent="1" source="yevtCZ5iCF3uBbT4yuub-26" target="yevtCZ5iCF3uBbT4yuub-29">
          <mxGeometry relative="1" as="geometry" />
        </mxCell>
        <mxCell id="yevtCZ5iCF3uBbT4yuub-26" value="Get &quot;Infra Transmission Station&quot; from the building exist at the address" style="rounded=1;whiteSpace=wrap;html=1;absoluteArcSize=1;arcSize=14;strokeWidth=2;" vertex="1" parent="1">
          <mxGeometry x="420" y="394" width="140" height="60" as="geometry" />
        </mxCell>
        <mxCell id="yevtCZ5iCF3uBbT4yuub-28" value="Address found" style="text;strokeColor=none;fillColor=none;align=left;verticalAlign=top;spacingLeft=4;spacingRight=4;overflow=hidden;rotatable=0;points=[[0,0.5],[1,0.5]];portConstraint=eastwest;" vertex="1" parent="1">
          <mxGeometry x="500" y="340" width="140" height="26" as="geometry" />
        </mxCell>
        <mxCell id="yevtCZ5iCF3uBbT4yuub-32" value="" style="edgeStyle=orthogonalEdgeStyle;rounded=0;orthogonalLoop=1;jettySize=auto;html=1;" edge="1" parent="1" source="yevtCZ5iCF3uBbT4yuub-29" target="yevtCZ5iCF3uBbT4yuub-31">
          <mxGeometry relative="1" as="geometry" />
        </mxCell>
        <mxCell id="yevtCZ5iCF3uBbT4yuub-29" value="" style="strokeWidth=2;html=1;shape=mxgraph.flowchart.decision;whiteSpace=wrap;" vertex="1" parent="1">
          <mxGeometry x="450" y="510" width="80" height="80" as="geometry" />
        </mxCell>
        <mxCell id="yevtCZ5iCF3uBbT4yuub-35" value="" style="edgeStyle=orthogonalEdgeStyle;rounded=0;orthogonalLoop=1;jettySize=auto;html=1;" edge="1" parent="1" source="yevtCZ5iCF3uBbT4yuub-31" target="yevtCZ5iCF3uBbT4yuub-34">
          <mxGeometry relative="1" as="geometry" />
        </mxCell>
        <mxCell id="yevtCZ5iCF3uBbT4yuub-31" value="Return Error" style="rounded=1;whiteSpace=wrap;html=1;absoluteArcSize=1;arcSize=14;strokeWidth=2;" vertex="1" parent="1">
          <mxGeometry x="230" y="520" width="140" height="60" as="geometry" />
        </mxCell>
        <mxCell id="yevtCZ5iCF3uBbT4yuub-33" value="Multiple Infra &lt;br&gt;Transmission stations." style="text;html=1;align=center;verticalAlign=middle;resizable=0;points=[];autosize=1;" vertex="1" parent="1">
          <mxGeometry x="350" y="497" width="130" height="30" as="geometry" />
        </mxCell>
        <mxCell id="yevtCZ5iCF3uBbT4yuub-34" value="" style="strokeWidth=2;html=1;shape=mxgraph.flowchart.terminator;whiteSpace=wrap;" vertex="1" parent="1">
          <mxGeometry x="80" y="528.5" width="100" height="43" as="geometry" />
        </mxCell>
        <mxCell id="yevtCZ5iCF3uBbT4yuub-36" value="Get Organization from NIM using Town" style="rounded=1;whiteSpace=wrap;html=1;absoluteArcSize=1;arcSize=14;strokeWidth=2;" vertex="1" parent="1">
          <mxGeometry x="620" y="620" width="140" height="60" as="geometry" />
        </mxCell>
      </root>
    </mxGraphModel>
  </diagram>
</mxfile>
